<?xml version="1.0" standalone="no"?>
<!DOCTYPE svg PUBLIC "-//W3C//DTD SVG 20010904//EN"
 "http://www.w3.org/TR/2001/REC-SVG-20010904/DTD/svg10.dtd">
<svg version="1.0" xmlns="http://www.w3.org/2000/svg"
 width="408.000000pt" height="203.000000pt" viewBox="0 0 408.000000 203.000000"
 preserveAspectRatio="xMidYMid meet">

<g transform="translate(0.000000,203.000000) scale(0.100000,-0.100000)"
fill="#000000" stroke="none">
<path d="M0 1835 l0 -195 280 0 280 0 0 -820 0 -820 215 0 215 0 0 820 0 820
275 0 275 0 0 -820 0 -820 210 0 210 0 0 420 0 420 390 0 390 0 0 -420 0 -420
220 0 220 0 0 420 0 420 380 0 380 0 0 190 0 190 -380 0 -380 0 0 210 0 210
450 0 450 0 0 195 0 195 -670 0 -670 0 0 -405 0 -405 -390 0 -390 0 0 405 0
405 -980 0 -980 0 0 -195z"/>
</g>
</svg>
